<?xml version="1.0" encoding="utf-8"?>
<!-- Generator: Adobe Illustrator 16.0.0, SVG Export Plug-In . SVG Version: 6.00 Build 0)  -->
<!DOCTYPE svg PUBLIC "-//W3C//DTD SVG 1.1//EN" "http://www.w3.org/Graphics/SVG/1.1/DTD/svg11.dtd">
<svg version="1.1" id="Layer_1" xmlns="http://www.w3.org/2000/svg" xmlns:xlink="http://www.w3.org/1999/xlink" x="0px" y="0px"
	 width="305px" height="105px" viewBox="0 0 305 105" enable-background="new 0 0 305 105" xml:space="preserve">
<g>
	<path fill="#3B5563" d="M304.498,100.318c0,2.31-1.873,4.183-4.183,4.183H4.681c-2.31,0-4.183-1.873-4.183-4.183V3.684
		c0-2.31,1.873-4.183,4.183-4.183h295.635c2.31,0,4.183,1.873,4.183,4.183V100.318z"/>
	<g>
		<rect x="11.498" y="9.501" fill="#FFFFFF" width="282" height="85"/>
		<g>
			<g>
				<g>
					<path fill="#F17C20" d="M33.012,43.44c-4.54,0-8.319-1.413-11.333-4.238c-3.018-2.826-4.526-6.464-4.526-10.917
						c0-4.48,1.5-8.126,4.503-10.938c3.002-2.811,6.787-4.216,11.356-4.216c3.25,0,5.914,0.747,7.995,2.24
						c2.077,1.493,3.675,3.354,4.788,5.579l-6.502,3.119c-0.499-1.201-1.326-2.211-2.482-3.031c-1.157-0.82-2.424-1.23-3.799-1.23
						c-2.373,0-4.326,0.806-5.865,2.416c-1.538,1.61-2.307,3.632-2.307,6.062c0,2.402,0.769,4.416,2.307,6.041
						c1.539,1.625,3.492,2.438,5.865,2.438c1.375,0,2.642-0.409,3.799-1.229c1.156-0.82,1.983-1.831,2.482-3.032l6.502,3.076
						c-1.113,2.226-2.718,4.092-4.811,5.6C38.891,42.686,36.233,43.44,33.012,43.44z"/>
					<path fill="#F17C20" d="M74.215,39.179c-2.959,2.842-6.692,4.261-11.201,4.261c-4.511,0-8.252-1.419-11.225-4.261
						c-2.973-2.839-4.457-6.472-4.457-10.894c0-4.422,1.484-8.052,4.457-10.894c2.973-2.839,6.714-4.26,11.225-4.26
						c4.509,0,8.242,1.421,11.201,4.26c2.958,2.842,4.437,6.472,4.437,10.894C78.651,32.707,77.173,36.339,74.215,39.179z
						 M57.237,34.347c1.478,1.612,3.404,2.417,5.776,2.417c2.371,0,4.29-0.805,5.754-2.417c1.465-1.609,2.196-3.63,2.196-6.062
						c0-2.43-0.731-4.451-2.196-6.062c-1.464-1.61-3.383-2.416-5.754-2.416c-2.372,0-4.299,0.806-5.776,2.416
						c-1.479,1.61-2.219,3.632-2.219,6.062C55.019,30.717,55.759,32.737,57.237,34.347z"/>
					<path fill="#F17C20" d="M115.508,42.913h-7.557V23.541l-7.38,19.372h-3.339l-7.424-19.372v19.372h-7.556V13.614h10.5
						l6.149,16.166l6.104-16.166h10.501V42.913z"/>
					<path fill="#F17C20" d="M153.811,42.913h-7.555V23.541l-7.38,19.372h-3.339l-7.423-19.372v19.372h-7.556V13.614h10.498
						l6.15,16.166l6.106-16.166h10.497V42.913z"/>
					<path fill="#F17C20" d="M183.046,40.08c-2.328,2.24-5.763,3.36-10.302,3.36c-4.54,0-7.987-1.126-10.346-3.383
						c-2.356-2.254-3.535-5.256-3.535-9.004V13.614h7.688V30.79c0,1.786,0.535,3.228,1.604,4.326
						c1.068,1.098,2.598,1.647,4.59,1.647c1.963,0,3.479-0.55,4.547-1.647c1.069-1.098,1.604-2.541,1.604-4.326V13.614h7.645v17.395
						C186.539,34.815,185.375,37.84,183.046,40.08z"/>
					<path fill="#F17C20" d="M218.824,42.913h-7.291l-12.388-16.956v16.956h-7.556V13.614h7.775l11.861,16.122V13.614h7.598V42.913z
						"/>
					<path fill="#F17C20" d="M231.432,42.913h-7.555V13.614h7.555V42.913z"/>
					<path fill="#F17C20" d="M250.584,42.913h-7.554v-22.71h-8.216v-6.589h23.94v6.589h-8.171V42.913z"/>
					<path fill="#F17C20" d="M277.688,42.913h-7.557V31.097l-11.113-17.483h8.521l6.371,10.806l6.282-10.806h8.565l-11.069,17.483
						V42.913z"/>
				</g>
				<g>
					<path fill="#285464" d="M30.626,74.062c1.354,1.408,2.03,3.187,2.03,5.334c0,2.147-0.676,3.929-2.03,5.344
						c-1.353,1.415-3.08,2.123-5.187,2.123c-2.105,0-3.835-0.708-5.188-2.123c-1.353-1.415-2.028-3.197-2.028-5.344
						c0-2.147,0.676-3.926,2.028-5.334c1.354-1.409,3.083-2.113,5.188-2.113C27.546,71.949,29.273,72.654,30.626,74.062z
						 M28.325,82.147c0.768-0.704,1.151-1.622,1.151-2.75c0-1.13-0.384-2.042-1.151-2.741c-0.767-0.697-1.728-1.045-2.886-1.045
						c-1.157,0-2.12,0.348-2.887,1.045c-0.769,0.698-1.15,1.611-1.15,2.741c0,1.129,0.382,2.046,1.15,2.75
						c0.767,0.705,1.729,1.056,2.887,1.056C26.598,83.203,27.559,82.852,28.325,82.147z"/>
					<path fill="#285464" d="M32.404,66.532v3.598H18.452V59.901h3.138v6.631h2.175v-6.485h3.139v6.485H32.404z"/>
				</g>
				<g>
					<path fill="#285464" d="M56.479,87.407h-8.635V53.921h16.771c3.612,0,6.459,1.062,8.534,3.188
						c2.073,2.125,3.111,4.778,3.111,7.957c0,3.146-1.038,5.782-3.111,7.907c-2.075,2.126-4.922,3.188-8.534,3.188h-8.136V87.407z
						 M63.308,68.631c1.206,0,2.2-0.318,2.987-0.954c0.785-0.635,1.18-1.506,1.18-2.61s-0.395-1.983-1.18-2.635
						c-0.787-0.653-1.781-0.98-2.987-0.98h-6.829v7.18H63.308z"/>
					<path fill="#285464" d="M109.041,87.407h-9.889l-5.623-11.245h-4.42v11.245h-8.635V53.921h16.771
						c3.613,0,6.459,1.054,8.534,3.162c2.073,2.109,3.111,4.771,3.111,7.983c0,2.678-0.652,4.862-1.957,6.552
						c-1.306,1.691-2.878,2.854-4.719,3.489L109.041,87.407z M95.939,68.631c1.205,0,2.2-0.318,2.986-0.954
						c0.786-0.635,1.181-1.522,1.181-2.661c0-1.104-0.395-1.975-1.181-2.611c-0.786-0.635-1.781-0.954-2.986-0.954h-6.83v7.18
						H95.939z"/>
					<path fill="#285464" d="M146.545,87.407h-9.791l-1.656-4.82h-13.202l-1.657,4.82h-9.791l12.603-33.485h10.894L146.545,87.407z
						 M132.737,75.058l-4.216-12.602l-4.267,12.602H132.737z"/>
					<path fill="#285464" d="M164.164,88.009c-5.188,0-9.506-1.614-12.95-4.844c-3.448-3.229-5.174-7.388-5.174-12.476
						c0-5.12,1.716-9.288,5.146-12.5c3.43-3.213,7.756-4.82,12.978-4.82c3.716,0,6.76,0.854,9.137,2.561
						c2.376,1.707,4.2,3.833,5.473,6.375l-7.429,3.565c-0.57-1.372-1.516-2.527-2.839-3.465c-1.32-0.937-2.769-1.406-4.342-1.406
						c-2.711,0-4.945,0.921-6.702,2.761c-1.757,1.841-2.636,4.151-2.636,6.928c0,2.746,0.879,5.045,2.636,6.904
						c1.757,1.856,3.991,2.786,6.702,2.786c1.573,0,3.021-0.469,4.342-1.406c1.323-0.937,2.269-2.091,2.839-3.464l7.429,3.515
						c-1.272,2.542-3.104,4.676-5.496,6.399C170.883,87.148,167.846,88.009,164.164,88.009z"/>
					<path fill="#285464" d="M198.954,87.407h-8.634V61.451h-9.389v-7.53h27.361v7.53h-9.339V87.407z"/>
					<path fill="#285464" d="M221.395,87.407h-8.635V53.921h8.635V87.407z"/>
					<path fill="#285464" d="M244.188,88.009c-5.188,0-9.507-1.614-12.953-4.844c-3.448-3.229-5.17-7.388-5.17-12.476
						c0-5.12,1.714-9.288,5.146-12.5c3.43-3.213,7.756-4.82,12.977-4.82c3.715,0,6.761,0.854,9.136,2.561
						c2.378,1.707,4.2,3.833,5.474,6.375l-7.431,3.565c-0.569-1.372-1.513-2.527-2.838-3.465c-1.32-0.937-2.768-1.406-4.341-1.406
						c-2.71,0-4.944,0.921-6.701,2.761c-1.758,1.841-2.636,4.151-2.636,6.928c0,2.746,0.878,5.045,2.636,6.904
						c1.757,1.856,3.991,2.786,6.701,2.786c1.573,0,3.021-0.469,4.341-1.406c1.325-0.937,2.269-2.091,2.838-3.464l7.431,3.515
						c-1.273,2.542-3.106,4.676-5.498,6.399C250.907,87.148,247.869,88.009,244.188,88.009z"/>
					<path fill="#285464" d="M287.411,87.407h-24.548V53.921h24.548v7.53h-15.913v5.222h15.562v7.53h-15.562v5.673h15.913V87.407z"
						/>
				</g>
			</g>
			<g>
				<g>
					
						<line fill="none" stroke="#285464" stroke-width="2" stroke-linecap="round" stroke-linejoin="round" x1="295.498" y1="49.501" x2="28.498" y2="49.501"/>
					
						<line fill="none" stroke="#285464" stroke-width="2" stroke-linecap="round" stroke-linejoin="round" x1="20.498" y1="49.501" x2="9.498" y2="49.501"/>
					<polyline fill="none" stroke="#285464" stroke-width="2" stroke-linecap="round" stroke-miterlimit="10" points="20.705,49.49 
						24.509,53.269 28.312,49.49 					"/>
				</g>
				<g>
					
						<line fill="none" stroke="#285464" stroke-width="2" stroke-linecap="round" stroke-linejoin="round" x1="40.498" y1="50.501" x2="40.498" y2="68.501"/>
					
						<line fill="none" stroke="#285464" stroke-width="2" stroke-linecap="round" stroke-linejoin="round" x1="40.498" y1="76.501" x2="40.498" y2="95.501"/>
					<polyline fill="none" stroke="#285464" stroke-width="2" stroke-linecap="round" stroke-miterlimit="10" points="40.51,76.5 
						44.287,72.531 40.51,68.562 					"/>
				</g>
			</g>
		</g>
	</g>
</g>
</svg>
