<?xml version="1.0" encoding="UTF-8" standalone="no"?>
<svg width="167px" height="31px" viewBox="0 0 167 31" version="1.1" xmlns="http://www.w3.org/2000/svg" xmlns:xlink="http://www.w3.org/1999/xlink" xmlns:sketch="http://www.bohemiancoding.com/sketch/ns">
    <!-- Generator: Sketch 3.1.1 (8761) - http://www.bohemiancoding.com/sketch -->
    <title>Imported Layers</title>
    <desc>Created with Sketch.</desc>
    <defs></defs>
    <g id="Page-1" stroke="none" stroke-width="1" fill="none" fill-rule="evenodd" sketch:type="MSPage">
        <g id="Desktop" sketch:type="MSArtboardGroup" transform="translate(-473.000000, -755.000000)">
            <g id="Imported-Layers" sketch:type="MSLayerGroup" transform="translate(475.000000, 757.000000)">
                <path d="M1.08985591,2.45216393 C1.09936599,2.46880328 3.64331412,0.947016393 3.65662824,0.970311475 C3.7293804,1.09677049 1.05466859,5.37260656 1.13074928,5.50477049 C1.22489914,5.66783607 8.96848703,0.75257377 9.06691643,0.923245902 C9.22288184,1.1937541 1.22157061,8.22934426 1.34757925,8.44660656 C1.53682997,8.77463934 15.5808501,-0.148327869 15.7444236,0.135967213 C15.9997695,0.578098361 1.00949568,11.4849508 1.23773775,11.8800164 C1.51257925,12.3568525 17.2831556,1.95013115 17.5727378,2.4507377 C17.8109654,2.86339344 0.240129683,15.2649344 0.528285303,15.7641148 C0.843069164,16.3094098 26.94683,-0.271459016 27.2872911,0.31804918 C27.6952738,1.02355738 3.64854467,15.981377 4.06508646,16.7030492 C4.40364553,17.2892295 31.626268,-0.100311475 32.0133285,0.570016393 C32.4213112,1.27695082 -0.472651297,21.2926557 0.0965273775,22.2781803 C0.513544669,23.0003279 34.2420173,1.61781967 34.6533285,2.33045902 C35.0907925,3.08778689 1.06560519,23.6354754 1.60007205,24.560623 C2.26244957,25.7073115 42.5467003,-0.58 43.1986167,0.548622951 C43.89,1.74618033 3.82257925,24.9181311 4.40412104,25.9255246 C5.13164265,27.1853607 46.2099856,0.662245902 46.699755,1.51085246 C47.2732133,2.5035082 11.2632709,24.0652459 11.821513,25.0322295 C12.4377666,26.0995246 52.9821182,-0.391262295 53.7029827,0.857163934 C54.337781,1.95678689 16.7677089,24.2691967 17.2512968,25.1068689 C17.7424928,25.957377 56.9140634,0.830540984 57.5127233,1.86693443 C58.1589337,2.98557377 20.1076513,25.5984426 20.6544813,26.5445082 C21.231268,27.5433443 62.3666715,1.09011475 62.9629539,2.12222951 C63.5192939,3.08540984 26.0757061,25.2157377 26.5835447,26.0947705 C27.1346542,27.048918 66.8592363,1.18757377 67.5777233,2.4312459 C68.0974496,3.33167213 33.495951,24.1161148 33.9505331,24.9038689 C34.6281268,26.0767049 73.9637464,0.181131148 74.6679683,1.40008197 C75.2167003,2.35042623 35.2862248,25.8603934 35.909611,26.9400492 C36.4293372,27.8404754 80.7691643,-0.171147541 81.2960231,0.741639344 C81.9137032,1.81083607 41.9437608,24.9680492 42.629438,26.155623 C43.3018012,27.3194262 84.4971182,0.790131148 85.0158934,1.68865574 C85.4628674,2.46262295 48.6093804,24.8772459 49.0810807,25.6944754 C49.7363256,26.8288033 90.417147,0.686967213 90.9135735,1.54745902 C91.4765706,2.52204918 54.667781,24.3053279 55.2127089,25.2480656 C55.824683,26.3087049 94.2211816,1.19042623 94.8883141,2.34614754 C95.4555908,3.32786885 58.5459942,25.1225574 59.0932997,26.0700492 C59.6986167,27.1183279 102.442651,-0.17257377 102.970937,0.742114754 C103.464986,1.59737705 64.9353458,24.5929508 65.5183141,25.6027213 C66.0142651,26.4613115 108.325115,-0.545295082 108.948501,0.532934426 C109.634179,1.72098361 70.0094524,24.6262295 70.6646974,25.7605574 C71.1868012,26.6652623 112.56804,0.312819672 113.113919,1.25745902 C113.749193,2.35803279 75.3926369,24.9442787 75.9123631,25.8437541 C76.5124496,26.8834754 119.79951,-0.728803279 120.336354,0.200622951 C121.032017,1.40578689 79.1767003,25.6041475 79.8818732,26.8259508 C80.465317,27.8361967 124.992968,-0.733081967 125.651066,0.406 C126.194092,1.34636066 87.837536,24.2040656 88.4033862,25.1848361 C89.1218732,26.4285082 127.071873,1.34493443 127.729496,2.48401639 C128.392349,3.63118033 90.2188617,25.9716393 90.8341643,27.0370328 C91.5098559,28.2070164 132.536844,1.64111475 133.109827,2.63377049 C133.714193,3.68062295 98.2463256,24.8601311 98.6666715,25.5875082 C99.3913401,26.8425902 139.173934,0.555278689 139.888617,1.79277049 C140.345101,2.58337705 103.623804,24.5934262 104.177767,25.5532787 C104.77928,26.5944262 146.667406,-0.445934426 147.305058,0.658918033 C147.966009,1.8027541 108.223833,24.8140164 108.864813,25.9240984 C109.415447,26.8772951 149.086297,1.16855738 149.752478,2.32285246 C150.196599,3.09159016 115.475749,24.2573115 115.888487,24.9723279 C116.508069,26.0453279 156.590231,-0.161639344 157.300634,1.06777049 C157.914986,2.1317377 118.586974,25.5917869 119.130951,26.5335738 C119.748156,27.6032459 159.078545,2.2572459 159.605403,3.1705082 C160.000072,3.85367213 126.731412,24.1869508 127.215,25.024623 C127.679568,25.828541 159.872637,4.86962295 160.437061,5.84754098 C160.817464,6.50598361 130.955317,25.23 131.343329,25.9012787 C131.709942,26.5369016 162.142219,7.19247541 162.545447,7.89085246 C162.927277,8.55119672 135.320447,25.8979508 135.731758,26.6096393 C136.145447,27.3265574 160.940144,11.2115902 161.306758,11.8467377 C161.623919,12.3958361 141.935187,25.8532623 142.208602,26.3267705 C142.511974,26.8511475 162.505029,14.0959016 162.728516,14.4824098 C162.941542,14.8513279 148.407752,25.5646885 148.636945,25.9616557 C148.84379,26.3201148 162.723285,17.4513443 162.887334,17.7361148 C163.055663,18.0265902 154.666816,25.5413934 154.793775,25.7615082 C154.886499,25.9217213 163.034265,20.7768361 163.13317,20.9479836 C163.188804,21.0449672 160.322464,25.6816393 160.400447,25.8171311 C160.416614,25.8451803 161.418026,25.201 161.430389,25.2228689" id="Stroke-1" stroke="#FFF10F" stroke-width="3.285" stroke-linecap="round" stroke-linejoin="round" sketch:type="MSShapeGroup"></path>
                <path d="M9.17628242,9.18206557 C10.5481124,9.18206557 11.5728242,9.71547541 12.2518444,10.7822951 L12.2518444,8.68383607 C12.2518444,8.12998361 12.2380548,7.79006557 12.2104755,7.6655082 C12.1410519,7.23621311 11.9470461,7.02132787 11.6289337,7.02132787 C11.5171902,7.02132787 11.3612248,7.04557377 11.1610375,7.09406557 C10.9598991,7.14255738 10.8039337,7.16680328 10.6931412,7.16680328 C10.1805476,7.16680328 9.92425072,6.94193443 9.92425072,6.4912459 C9.92425072,6.02772131 10.2704179,5.7952459 10.9632277,5.7952459 C11.0744957,5.7952459 11.2751585,5.8095082 11.5661671,5.83660656 C12.0093372,5.87844262 12.2380548,5.89936066 12.2518444,5.89936066 C12.376902,5.89936066 12.5571182,5.88177049 12.7920173,5.84706557 C13.0273919,5.81283607 13.2080836,5.7952459 13.3326657,5.7952459 C13.7206772,5.7952459 13.9142075,6.07288525 13.9142075,6.62768852 L13.9142075,6.85683607 C13.9004179,6.89867213 13.8871037,7.26616393 13.8728386,7.95978689 C13.8728386,8.04298361 13.8523919,8.57734426 13.8105476,9.56239344 C13.7829683,10.2564918 13.7691787,10.7837213 13.7691787,11.144082 L13.7691787,16.6597869 C13.7834438,17.5754262 13.8257637,18.1440164 13.8961383,18.3665082 C13.966513,18.5885246 14.1357925,18.6992951 14.4039769,18.6992951 C14.5870461,18.6992951 14.7287464,18.6883607 14.8276513,18.667918 C15.0530403,18.647 15.2085303,18.636541 15.29317,18.636541 C15.8147983,18.636541 16.0758501,18.8623607 16.0758501,19.311623 C16.0758501,19.7765738 15.7643948,20.0080984 15.1410086,20.0080984 C15.0021614,20.0080984 14.790562,19.9909836 14.5071614,19.9562787 C14.2228098,19.9215738 14.0116859,19.904459 13.8728386,19.904459 C13.8314697,19.904459 13.6717003,19.9177705 13.3949568,19.9458197 C13.2285303,19.9876557 13.0835014,20.0080984 12.9584438,20.0080984 C12.5846974,20.0080984 12.3978242,19.7585082 12.3978242,19.2602787 L12.3978242,18.8034098 C11.6645965,19.7865574 10.6008934,20.2781311 9.20528818,20.2781311 C7.79589337,20.2781311 6.66229107,19.7661148 5.80590778,18.7406557 C4.94904899,17.7156721 4.5206196,16.3721639 4.5206196,14.7091803 C4.5206196,13.0338361 4.94334294,11.6931803 5.78831412,10.6886393 C6.6332853,9.68457377 7.76308357,9.18206557 9.17628242,9.18206557 M12.1676801,16.5171639 C12.2237896,16.0602951 12.2518444,15.4717377 12.2518444,14.7510164 C12.2518444,13.8230164 12.2166571,13.192623 12.1467579,12.8603115 C12.0207493,12.1676393 11.7202305,11.6275738 11.2437752,11.2396393 C10.6841066,10.7822951 10.0402738,10.553623 9.31180115,10.553623 C8.33178674,10.553623 7.56574928,10.9211148 7.01321326,11.6551475 C6.45972622,12.3891803 6.18298271,13.3937213 6.18298271,14.6678197 C6.18298271,15.9842295 6.46971182,17.0196721 7.04412104,17.774623 C7.61805476,18.5295738 8.40168588,18.9070492 9.39596542,18.9070492 C10.1520173,18.9070492 10.781585,18.6883607 11.2860951,18.2524098 C11.7896542,17.8159836 12.0839914,17.2378852 12.1676801,16.5171639" id="Fill-2" fill="#D8117D" sketch:type="MSShapeGroup"></path>
                <path d="M31.0608934,11.9727213 L33.492147,18.4910656 L35.8406628,12.008377 C35.9795101,11.6204426 36.0489337,11.3713279 36.0489337,11.2605574 C36.0489337,10.9553443 35.9029539,10.8032131 35.6124207,10.8032131 C35.5011527,10.8032131 35.3380548,10.8208033 35.1236023,10.8550328 C34.9086744,10.8897377 34.7460519,10.9068525 34.6352594,10.9068525 C34.1778242,10.9068525 33.9495821,10.6853115 33.9495821,10.2412787 C33.9495821,9.77109836 34.2824352,9.53577049 34.9471902,9.53577049 L35.1131412,9.53577049 C35.1825648,9.54765574 35.2381988,9.55336066 35.2795677,9.55336066 L36.1525937,9.66032787 C36.3465994,9.70168852 36.5477378,9.72308197 36.7550576,9.72308197 C37.0322767,9.72308197 37.4897118,9.68362295 38.1273631,9.60565574 C38.5144236,9.55859016 38.7921182,9.53577049 38.9580692,9.53577049 C39.5538761,9.53577049 39.8520173,9.76444262 39.8520173,10.2217869 C39.8520173,10.6786557 39.6090346,10.9068525 39.1244957,10.9068525 C38.9718588,10.9068525 38.8615418,10.893541 38.7921182,10.8654918 C38.5838473,10.8241311 38.4388184,10.8032131 38.3556052,10.8032131 C38.1059654,10.8032131 37.8496686,11.1364754 37.5862392,11.8025246 L34.6561816,19.2997377 C34.4065418,19.9382131 33.9842939,20.2572131 33.388487,20.2572131 C32.8197839,20.2572131 32.4118012,19.9372623 32.1621614,19.2978361 L29.1693372,11.5757541 C28.9753314,11.0608852 28.7466138,10.8032131 28.4836599,10.8032131 C28.3866571,10.8032131 28.2411527,10.8208033 28.047147,10.8550328 C27.8531412,10.8897377 27.7071614,10.9068525 27.610634,10.9068525 C27.1531988,10.9068525 26.9249568,10.6957705 26.9249568,10.2721803 C26.9249568,9.78108197 27.2435447,9.53577049 27.881196,9.53577049 C27.991513,9.53577049 28.0742507,9.54290164 28.1303602,9.55668852 L29.0033862,9.66745902 C29.2939193,9.70406557 29.584928,9.72308197 29.8764121,9.72308197 C30.1117867,9.72308197 30.4579539,9.69598361 30.9149135,9.6422623 L31.6010663,9.56191803 C31.6700144,9.54432787 31.7674928,9.53577049 31.8920749,9.53577049 C32.5016715,9.53577049 32.8064697,9.77109836 32.8064697,10.2422295 C32.8064697,10.6857869 32.5430403,10.9068525 32.0166571,10.9068525 C31.8502305,10.9068525 31.7323055,10.9001967 31.6633573,10.8859344 C31.399928,10.8307869 31.2335014,10.8032131 31.1645533,10.8032131 C30.9429683,10.8032131 30.8321758,10.9011475 30.8321758,11.0955902 C30.8321758,11.1930492 30.859755,11.3323443 30.9149135,11.5139508 L31.0608934,11.9727213" id="Fill-3" fill="#D8117D" sketch:type="MSShapeGroup"></path>
                <path d="M42.4706196,13.255377 C42.1101873,13.255377 41.805389,13.1270164 41.5562248,12.8702951 C41.306585,12.6145246 41.1820029,12.306459 41.1820029,11.9460984 C41.1820029,11.5857377 41.306585,11.2776721 41.5562248,11.0214262 C41.805389,10.7651803 42.1101873,10.6368197 42.4706196,10.6368197 C42.8305764,10.6368197 43.1353746,10.7651803 43.3850144,11.0214262 C43.6341787,11.2776721 43.7592363,11.5857377 43.7592363,11.9460984 C43.7592363,12.306459 43.6341787,12.6145246 43.3850144,12.8702951 C43.1353746,13.1270164 42.8305764,13.255377 42.4706196,13.255377 M42.4706196,20.2781311 C42.1101873,20.2781311 41.805389,20.1502459 41.5562248,19.8944754 C41.306585,19.6377541 41.1820029,19.3296885 41.1820029,18.9688525 C41.1820029,18.6094426 41.306585,18.3009016 41.5562248,18.0441803 C41.805389,17.7884098 42.1101873,17.6605246 42.4706196,17.6605246 C42.8305764,17.6605246 43.1353746,17.7884098 43.3850144,18.0441803 C43.6341787,18.3009016 43.7592363,18.6094426 43.7592363,18.9688525 C43.7592363,19.3296885 43.6341787,19.6377541 43.3850144,19.8944754 C43.1353746,20.1502459 42.8305764,20.2781311 42.4706196,20.2781311" id="Fill-4" fill="#1A1918" sketch:type="MSShapeGroup"></path>
                <path d="M52.1761383,13.0680656 C52.1761383,12.5142131 52.5223055,12.1952131 53.2155908,12.1120164 C53.1461671,11.6275738 52.9126945,11.2467705 52.5165994,10.9691311 C52.1200288,10.6924426 51.6088617,10.5540984 50.983098,10.5540984 C50.0230548,10.5540984 49.2513112,10.9349016 48.6669164,11.6969836 C48.0829971,12.4585902 47.7910375,13.4702623 47.7910375,14.7300984 C47.7910375,16.0327213 48.064928,17.054377 48.6141354,17.7950656 C49.1633429,18.5362295 49.9236744,18.9070492 50.8965562,18.9070492 C51.5075793,18.9070492 52.0387176,18.7335246 52.4904467,18.3879016 C52.9421758,18.0413279 53.2512536,17.5630656 53.4181556,16.9535902 C53.5574784,16.4691475 53.6402161,16.1919836 53.6682709,16.1225738 C53.8209078,15.8454098 54.0434438,15.7070656 54.3354035,15.7070656 C54.5717291,15.7070656 54.7657349,15.7831311 54.9188473,15.9352623 C55.0714841,16.0883443 55.1480403,16.2818361 55.1480403,16.5171639 C55.1480403,16.8637377 55.0372478,17.2792459 54.8156628,17.7641639 C54.5940778,18.249082 54.3301729,18.6503279 54.0258501,18.9688525 C53.2084582,19.8417049 52.1480836,20.2781311 50.8456772,20.2781311 C49.4329539,20.2781311 48.2926945,19.7794262 47.4272767,18.7824918 C46.5609078,17.7846066 46.1277233,16.4758033 46.1277233,14.8551311 C46.1277233,13.1374754 46.5751729,11.7625902 47.4686455,10.7304754 C48.3625937,9.69836066 49.5504035,9.18206557 51.0330259,9.18206557 C52.1414265,9.18206557 53.0629539,9.48347541 53.7971326,10.0862951 C54.5313112,10.6886393 54.8988761,11.4545246 54.8988761,12.3825246 C54.8988761,12.8950164 54.7567003,13.3171803 54.4728242,13.6499672 C54.1884726,13.9822787 53.8247118,14.1486721 53.3815418,14.1486721 C53.0348991,14.1486721 52.747219,14.0445574 52.5189769,13.8368033 C52.2902594,13.6290492 52.1761383,13.3732787 52.1761383,13.0680656" id="Fill-5" fill="#4D4D4C" sketch:type="MSShapeGroup"></path>
                <path d="M61.5074352,20.2781311 C60.0523919,20.2781311 58.8893084,19.7765738 58.0162824,18.7715574 C57.1432565,17.7674918 56.7067435,16.4206557 56.7067435,14.7300984 C56.7067435,13.0404918 57.1461095,11.6931803 58.026268,10.6886393 C58.905951,9.68457377 60.0871037,9.18206557 61.5697262,9.18206557 C63.079928,9.18206557 64.2715418,9.67459016 65.1445677,10.6577377 C66.0175937,11.6413607 66.4541066,12.9782131 66.4541066,14.6678197 C66.4541066,16.358377 66.003804,17.7156721 65.1031988,18.7406557 C64.2021182,19.7661148 63.0038473,20.2781311 61.5074352,20.2781311 M61.6220317,10.553623 C60.6486744,10.553623 59.8845389,10.893541 59.3281988,11.5719508 C58.7723343,12.2508361 58.466585,13.213541 58.410951,14.460541 L58.410951,14.7300984 C58.410951,16.0327213 58.685317,17.054377 59.2345245,17.7950656 C59.783732,18.5362295 60.5516715,18.9070492 61.5383429,18.9070492 C62.5535447,18.9070492 63.3495389,18.5362295 63.9258501,17.7950656 C64.5026369,17.054377 64.791268,16.0260656 64.791268,14.7091803 C64.791268,11.9389672 63.7346974,10.553623 61.6220317,10.553623" id="Fill-6" fill="#4D4D4C" sketch:type="MSShapeGroup"></path>
                <path d="M71.2547983,10.1699672 L71.2547983,10.761377 C72.0859798,9.70881967 73.1943804,9.18206557 74.58,9.18206557 C75.3284438,9.18206557 76.0350432,9.37270492 76.6997983,9.75398361 C77.3655043,10.1347869 77.8148559,10.6092459 78.0511816,11.1768852 C78.2447118,11.6484918 78.3412392,12.264623 78.3412392,13.0262295 L78.3412392,16.9745082 C78.3412392,17.5701967 78.3488473,17.9234262 78.3626369,18.0341967 C78.431585,18.5058033 78.6189337,18.7406557 78.923732,18.7406557 C79.0483141,18.7406557 79.2109366,18.7240164 79.4120749,18.6883607 C79.6127378,18.6541311 79.755389,18.636541 79.8381268,18.636541 C80.0178674,18.636541 80.1743084,18.6992951 80.3055476,18.8243279 C80.4372622,18.9484098 80.5033573,19.1014918 80.5033573,19.2807213 C80.5033573,19.4884754 80.4201441,19.662 80.2541931,19.8003443 C80.0872911,19.9382131 79.8866282,20.0080984 79.6507781,20.0080984 C79.4572478,20.0080984 79.1381844,19.9800492 78.6954899,19.9249016 C78.2513689,19.8702295 77.8357781,19.8417049 77.4477666,19.8417049 C77.0873343,19.8417049 76.7901441,19.8559672 76.5547695,19.883541 C75.8614841,19.9667377 75.4948703,20.0080984 75.4530259,20.0080984 C74.8985879,20.0080984 74.6213689,19.7661148 74.6213689,19.2807213 C74.6213689,18.8514262 74.8614986,18.636541 75.3422334,18.636541 C75.4554035,18.636541 75.5823631,18.6503279 75.7231124,18.678377 C75.9912968,18.7335246 76.1610519,18.7615738 76.231902,18.7615738 C76.5709366,18.7615738 76.7544813,18.3807705 76.7830115,17.6186885 L76.7830115,13.7122459 C76.7830115,12.9782131 76.7482997,12.472377 76.6793516,12.1952131 C76.5547695,11.6694098 76.2861095,11.2605574 75.8724207,10.9691311 C75.4168876,10.6506066 74.8990634,10.4913443 74.3194236,10.4913443 C73.2153026,10.4913443 72.4216859,10.8859344 71.939049,11.6760656 C71.607147,12.2161311 71.442147,13.1374754 71.442147,14.439623 L71.442147,17.2027049 C71.442147,17.8131311 71.4835159,18.2286393 71.5662536,18.4497049 C71.6499424,18.6712459 71.8016282,18.7824918 72.0236888,18.7824918 C72.1344813,18.7824918 72.2871182,18.7582459 72.4811239,18.7097541 C72.6746542,18.6617377 72.8344236,18.636541 72.9590058,18.636541 C73.3879107,18.636541 73.6033141,18.868541 73.6033141,19.3330164 C73.6033141,19.7832295 73.3256196,20.0080984 72.7721326,20.0080984 C72.6608646,20.0080984 72.3004323,19.9667377 71.6913112,19.883541 C71.3860375,19.8417049 71.0470029,19.8207869 70.672781,19.8207869 C70.3817723,19.8207869 69.9937608,19.8493115 69.5092219,19.904459 C68.8991499,19.9738689 68.5529827,20.0080984 68.4697695,20.0080984 C67.8877522,20.0080984 67.5967435,19.7732459 67.5967435,19.3016393 C67.5967435,18.8585574 67.8221326,18.636541 68.2743372,18.636541 C68.3447118,18.636541 68.4754755,18.657459 68.6656772,18.6992951 C68.8563545,18.7406557 69.0432277,18.7615738 69.2262968,18.7615738 C69.6504467,18.7615738 69.8691787,18.3598525 69.8834438,17.5564098 L69.8834438,12.008377 C69.8549135,11.5377213 69.7945245,11.2153934 69.7032277,11.0423443 C69.6114553,10.8688197 69.4521614,10.7822951 69.2262968,10.7822951 C69.1278674,10.7822951 68.9828386,10.8032131 68.7926369,10.8445738 C68.6024352,10.8859344 68.4578818,10.9068525 68.3589769,10.9068525 C67.8506628,10.9068525 67.5967435,10.6819836 67.5967435,10.2317705 C67.5967435,9.76777049 67.9086744,9.53577049 68.531585,9.53577049 C68.6152738,9.53577049 68.6846974,9.54290164 68.7403314,9.55668852 L69.5092219,9.63940984 C69.7303314,9.63940984 69.9248127,9.62229508 70.0907637,9.58759016 C70.451196,9.55336066 70.6380692,9.53577049 70.6518588,9.53577049 C71.0536599,9.53577049 71.2547983,9.74685246 71.2547983,10.1699672" id="Fill-7" fill="#4D4D4C" sketch:type="MSShapeGroup"></path>
                <path d="M86.239366,9.18206557 C86.5997983,9.18206557 87.0082565,9.23816393 87.4656916,9.34845902 C87.5346398,7.99116393 88.3244524,7.31227869 89.8351297,7.31227869 C90.4723055,7.31227869 91.0058213,7.47819672 91.4352017,7.81098361 C91.8641066,8.14329508 92.0790346,8.56640984 92.0790346,9.07842623 C92.0790346,9.4107377 91.9720461,9.69503279 91.7575937,9.93036066 C91.5421902,10.1661639 91.2896974,10.2835902 90.9982133,10.2835902 C90.7771037,10.2835902 90.583098,10.2075246 90.4166715,10.054918 C90.250245,9.90278689 90.1675072,9.72260656 90.1675072,9.51485246 C90.1675072,9.29331148 90.3196686,9.06463934 90.6244669,8.82883607 C90.4028818,8.55214754 90.1185303,8.41332787 89.7723631,8.41332787 C89.0377089,8.41332787 88.663487,8.87067213 88.6506484,9.78488525 C89.7029395,10.4913443 90.2297983,11.4402623 90.2297983,12.6316393 C90.2297983,13.5876885 89.867464,14.384 89.1427954,15.0210492 C88.4181268,15.6580984 87.5127666,15.976623 86.4262392,15.976623 C85.6597262,15.976623 84.8651585,15.7973934 84.043487,15.4370328 C83.820951,15.3400492 83.6321758,15.2915574 83.4790634,15.2915574 C83.2841066,15.2915574 83.110072,15.378082 82.9564841,15.5511311 C82.8038473,15.7246557 82.7272911,15.929082 82.7272911,16.1644098 C82.7272911,16.8846557 83.4576657,17.244541 84.919366,17.244541 L85.6716138,17.244541 C86.9944669,17.244541 88.0662536,17.368623 88.8874496,17.6177377 C89.6530115,17.8525902 90.258804,18.2181803 90.7043516,18.7149836 C91.1498991,19.2122623 91.3724352,19.7713443 91.3724352,20.3927049 C91.3724352,21.4005738 90.9050144,22.1978361 89.9696974,22.7854426 C89.0343804,23.371623 87.7700144,23.6649508 86.1770749,23.6649508 C84.5831844,23.6649508 83.3330836,23.3877869 82.4253458,22.8339344 C81.5180836,22.2796066 81.0639769,21.518 81.0639769,20.5486393 C81.0639769,19.4261967 81.6944957,18.6294098 82.9555331,18.1587541 C81.8052882,17.7156721 81.230879,17.0505738 81.230879,16.1644098 C81.230879,15.1945738 81.8052882,14.5299508 82.9555331,14.1691148 C82.5951009,13.6846721 82.4153602,13.1165574 82.4153602,12.4652459 C82.4153602,11.523459 82.7786455,10.7409344 83.5066427,10.1171967 C84.2336888,9.49393443 85.144755,9.18206557 86.239366,9.18206557 M86.3121182,18.6160984 C85.1999135,18.6160984 84.3245101,18.7824918 83.6854323,19.1148033 C83.0463545,19.4471148 82.7272911,19.8978033 82.7272911,20.4654426 C82.7272911,21.033082 83.0392219,21.4804426 83.6649856,21.805623 C84.2902738,22.1312787 85.1309654,22.2938689 86.1870605,22.2938689 C87.2987896,22.2938689 88.1779971,22.1279508 88.8242075,21.7956393 C89.4704179,21.462377 89.7932853,21.0192951 89.7932853,20.4654426 C89.7932853,19.883541 89.487536,19.43 88.8760375,19.1043443 C88.2645389,18.7791639 87.4095821,18.6160984 86.3121182,18.6160984 M86.3016571,10.553623 C85.6920605,10.553623 85.1723343,10.7338033 84.7429539,11.0941639 C84.3135735,11.4545246 84.0777233,11.9042623 84.0363545,12.4448033 L84.0363545,12.5688852 C84.0363545,13.1793115 84.2441499,13.6708852 84.6597406,14.0445574 C85.0758069,14.4187049 85.6159798,14.605541 86.2807349,14.605541 C86.9735447,14.605541 87.5384438,14.4187049 87.9749568,14.0445574 C88.4109942,13.6708852 88.6292507,13.192623 88.6292507,12.6107213 C88.6292507,12.0150328 88.4076657,11.523459 87.9640202,11.1355246 C87.5208501,10.7475902 86.9668876,10.553623 86.3016571,10.553623" id="Fill-8" fill="#4D4D4C" sketch:type="MSShapeGroup"></path>
                <path d="M96.3191066,10.1281311 L96.3191066,10.6990984 C97.0390202,9.68790164 98.0023919,9.18206557 99.2073199,9.18206557 C100.177349,9.18206557 100.964308,9.45637705 101.566772,10.0030984 C102.169236,10.5502951 102.470231,11.2534262 102.470231,12.1120164 C102.470231,12.7219672 102.318069,13.2168689 102.013746,13.5976721 C101.708473,13.9789508 101.307147,14.1691148 100.807867,14.1691148 C100.48928,14.1691148 100.219193,14.0726066 99.9976081,13.8781639 C99.7755476,13.6851475 99.6652305,13.4493443 99.6652305,13.1721803 C99.6652305,12.9506393 99.7484438,12.7528689 99.9148703,12.5798197 C100.080346,12.4067705 100.274352,12.3202459 100.496412,12.3202459 C100.537781,12.3202459 100.628127,12.3406885 100.766499,12.3825246 C100.849712,12.2161311 100.891081,12.064 100.891081,11.9256557 C100.891081,11.523459 100.714669,11.1840164 100.360893,10.9068525 C100.008069,10.6296885 99.5677522,10.4913443 99.0418444,10.4913443 C97.9610231,10.4913443 97.2401585,10.9767377 96.8797262,11.9460984 C96.6581412,12.5417869 96.5478242,13.4417377 96.5478242,14.647377 L96.5478242,16.018459 C96.5478242,16.946459 96.5544813,17.466082 96.5682709,17.5768525 C96.63817,18.3669836 96.855,18.7615738 97.2187608,18.7615738 C97.4004035,18.7615738 97.5887032,18.7378033 97.784611,18.6902623 C97.9386744,18.6546066 98.0718156,18.636541 98.1830836,18.636541 C98.6310086,18.636541 98.8544957,18.8552295 98.8544957,19.2916557 C98.8544957,19.769918 98.5701441,20.0080984 98.0023919,20.0080984 L97.9191787,20.0080984 C97.7113833,20.0080984 97.3961239,19.9838525 96.9738761,19.9353607 C96.5506772,19.8873443 96.2354179,19.862623 96.028098,19.862623 C95.4736599,19.862623 95.037147,19.8768852 94.7185591,19.904459 L93.5545245,20.0080984 C92.9862968,20.0080984 92.7024207,19.7661148 92.7024207,19.2807213 C92.7024207,18.8514262 92.9682277,18.636541 93.499366,18.636541 C93.6391643,18.636541 93.7437752,18.6441475 93.8141499,18.657459 L94.1289337,18.7202131 C94.268732,18.7477869 94.3666859,18.7615738 94.4223199,18.7615738 C94.7718156,18.7615738 94.9610663,18.4430492 94.9886455,17.8055246 L94.9886455,16.7458361 L94.9263545,12.0288197 C94.8845101,11.2120656 94.6771902,10.8032131 94.3029683,10.8032131 C94.1917003,10.8032131 94.0395389,10.8208033 93.8455331,10.8550328 C93.6515274,10.8897377 93.4988905,10.9068525 93.3885735,10.9068525 C92.9311383,10.9068525 92.7024207,10.6886393 92.7024207,10.2517377 C92.7024207,9.77490164 93.0000865,9.53577049 93.5963689,9.53577049 C93.7342651,9.53577049 93.942536,9.55336066 94.219755,9.58759016 C94.4969741,9.62229508 94.7047695,9.63940984 94.8431412,9.63940984 C94.9539337,9.63940984 95.1346254,9.62229508 95.3837896,9.58759016 C95.4941066,9.55336066 95.6262968,9.53577049 95.7784582,9.53577049 C96.1388905,9.53577049 96.3191066,9.73354098 96.3191066,10.1281311" id="Fill-9" fill="#4D4D4C" sketch:type="MSShapeGroup"></path>
                <path d="M112.820533,13.7992459 C112.820533,14.3240984 112.786297,14.645 112.716873,14.7624262 C112.646499,14.879377 112.44536,14.9383279 112.111556,14.9383279 L105.485403,14.9383279 C105.304712,14.9383279 105.186311,14.9625738 105.130677,15.011541 C105.075519,15.0600328 105.047464,15.140377 105.047464,15.2511475 C105.047464,16.295623 105.360346,17.1660984 105.985634,17.8625738 C106.610922,18.5585738 107.388847,18.9070492 108.319885,18.9070492 C108.930908,18.9070492 109.490101,18.7406557 109.997464,18.4083443 C110.504827,18.0760328 110.834352,17.6533934 110.986988,17.1409016 L111.174813,16.538082 C111.271816,16.2057705 111.501484,16.039377 111.861916,16.039377 C112.376412,16.039377 112.63366,16.3032295 112.63366,16.8285574 C112.63366,17.7299344 112.1767,18.5300492 111.262305,19.2289016 C110.347435,19.9282295 109.308458,20.2781311 108.144424,20.2781311 C106.689856,20.2781311 105.532478,19.7903607 104.673718,18.8133934 C103.814481,17.8369016 103.385101,16.5247705 103.385101,14.8760492 C103.385101,13.1854918 103.842536,11.8144098 104.756931,10.7618525 C105.67085,9.70881967 106.862464,9.18206557 108.331772,9.18206557 C109.634179,9.18206557 110.707392,9.61754098 111.552839,10.4870656 C112.39781,11.3565902 112.820533,12.4604918 112.820533,13.7992459 M105.276182,13.2758197 C105.276182,13.4702623 105.429769,13.5667705 105.735043,13.5667705 L110.719755,13.5667705 C111.011715,13.5667705 111.157695,13.4702623 111.157695,13.2758197 C111.157695,12.5417869 110.88,11.9042623 110.32366,11.3641967 C109.76732,10.8246066 109.114452,10.553623 108.363156,10.553623 C107.58428,10.553623 106.874827,10.8345902 106.235749,11.3950984 C105.59572,11.956082 105.276182,12.5831475 105.276182,13.2758197" id="Fill-10" fill="#4D4D4C" sketch:type="MSShapeGroup"></path>
                <path d="M118.730576,9.18206557 C119.656383,9.18206557 120.429078,9.425 121.051037,9.90944262 L121.051037,9.82672131 C121.051037,9.31422951 121.272147,9.0575082 121.715793,9.0575082 C122.173228,9.0575082 122.401945,9.27952459 122.401945,9.72260656 C122.401945,9.80580328 122.390058,10.013082 122.366758,10.3458689 C122.32111,10.6235082 122.29781,10.9001967 122.29781,11.1768852 C122.29781,11.3432787 122.314928,11.5857377 122.34964,11.9042623 C122.383876,12.2232623 122.401945,12.4652459 122.401945,12.6316393 C122.401945,13.1583934 122.176556,13.4212951 121.726254,13.4212951 C121.289741,13.4212951 121.064827,13.1997541 121.051037,12.7561967 L121.051037,12.0706557 C121.036772,11.6551475 120.797118,11.2985902 120.330648,11.0005082 C119.864179,10.7029016 119.317824,10.553623 118.692061,10.553623 C118.051556,10.553623 117.515663,10.7166885 117.08438,11.0423443 C116.652622,11.3675246 116.436744,11.7730492 116.436744,12.2574918 C116.436744,13.1441311 117.048718,13.6708852 118.271715,13.8368033 L119.480922,14.0031967 C121.844179,14.3221967 123.025331,15.2986885 123.025331,16.9326721 C123.025331,17.9305574 122.645403,18.7373279 121.885548,19.3539344 C121.125692,19.9700656 120.130937,20.2781311 118.901282,20.2781311 C117.754841,20.2781311 116.760086,19.9529508 115.917017,19.3016393 L115.917017,19.6967049 C115.917017,20.1954098 115.681643,20.4445246 115.210893,20.4445246 C114.697824,20.4445246 114.441527,20.1602295 114.441527,19.5925902 C114.441527,19.6895738 114.483372,19.3296885 114.566585,18.5119836 C114.594164,18.3180164 114.607954,18.1245246 114.607954,17.9305574 C114.607954,17.5977705 114.579899,17.2859016 114.525216,16.9954262 C114.469582,16.7044754 114.441527,16.4753279 114.441527,16.3094098 C114.441527,15.8249672 114.663588,15.5820328 115.106758,15.5820328 C115.397767,15.5820328 115.581311,15.651918 115.657867,15.7902623 C115.733473,15.929082 115.779121,16.295623 115.792911,16.8913115 C115.806225,17.487 116.118156,17.9723934 116.728228,18.3460656 C117.337349,18.7202131 118.113372,18.9070492 119.055346,18.9070492 C119.734366,18.9070492 120.295461,18.7335246 120.739107,18.3879016 C121.182277,18.0413279 121.404337,17.6049016 121.404337,17.078623 C121.404337,16.1363607 120.655893,15.5896393 119.159481,15.4370328 C117.732493,15.2844262 116.645014,15.0039344 115.896571,14.595082 C115.148602,14.1867049 114.773905,13.4702623 114.773905,12.4448033 C114.773905,11.4754426 115.140519,10.6886393 115.87232,10.0862951 C116.604597,9.48347541 117.557032,9.18206557 118.730576,9.18206557" id="Fill-11" fill="#4D4D4C" sketch:type="MSShapeGroup"></path>
                <path d="M128.956297,9.18206557 C129.881628,9.18206557 130.654323,9.425 131.276282,9.90944262 L131.276282,9.82672131 C131.276282,9.31422951 131.497392,9.0575082 131.941037,9.0575082 C132.398473,9.0575082 132.626715,9.27952459 132.626715,9.72260656 C132.626715,9.80580328 132.615303,10.013082 132.592003,10.3458689 C132.546354,10.6235082 132.52353,10.9001967 132.52353,11.1768852 C132.52353,11.3432787 132.540173,11.5857377 132.574885,11.9042623 C132.609121,12.2232623 132.626715,12.4652459 132.626715,12.6316393 C132.626715,13.1583934 132.401801,13.4212951 131.951499,13.4212951 C131.514986,13.4212951 131.289597,13.1997541 131.276282,12.7561967 L131.276282,12.0706557 C131.262017,11.6551475 131.022363,11.2985902 130.555893,11.0005082 C130.089424,10.7029016 129.543069,10.553623 128.917305,10.553623 C128.276801,10.553623 127.740908,10.7166885 127.309625,11.0423443 C126.877867,11.3675246 126.662464,11.7730492 126.662464,12.2574918 C126.662464,13.1441311 127.273963,13.6708852 128.49696,13.8368033 L129.706167,14.0031967 C132.069424,14.3221967 133.250576,15.2986885 133.250576,16.9326721 C133.250576,17.9305574 132.870648,18.7373279 132.110793,19.3539344 C131.350937,19.9700656 130.356182,20.2781311 129.126527,20.2781311 C127.980086,20.2781311 126.985331,19.9529508 126.142738,19.3016393 L126.142738,19.6967049 C126.142738,20.1954098 125.906888,20.4445246 125.435663,20.4445246 C124.923069,20.4445246 124.667248,20.1602295 124.667248,19.5925902 C124.667248,19.6895738 124.708617,19.3296885 124.79183,18.5119836 C124.819409,18.3180164 124.833674,18.1245246 124.833674,17.9305574 C124.833674,17.5977705 124.805144,17.2859016 124.750461,16.9954262 C124.694827,16.7044754 124.667248,16.4753279 124.667248,16.3094098 C124.667248,15.8249672 124.888833,15.5820328 125.332003,15.5820328 C125.623012,15.5820328 125.806556,15.651918 125.883112,15.7902623 C125.958718,15.929082 126.004366,16.295623 126.018156,16.8913115 C126.03147,17.487 126.343401,17.9723934 126.953473,18.3460656 C127.563069,18.7202131 128.338617,18.9070492 129.280591,18.9070492 C129.959611,18.9070492 130.520706,18.7335246 130.964352,18.3879016 C131.407522,18.0413279 131.629582,17.6049016 131.629582,17.078623 C131.629582,16.1363607 130.881138,15.5896393 129.384726,15.4370328 C127.957738,15.2844262 126.870259,15.0039344 126.122291,14.595082 C125.373847,14.1867049 124.999625,13.4702623 124.999625,12.4448033 C124.999625,11.4754426 125.365288,10.6886393 126.097565,10.0862951 C126.829841,9.48347541 127.781801,9.18206557 128.956297,9.18206557" id="Fill-12" fill="#4D4D4C" sketch:type="MSShapeGroup"></path>
                <path d="M139.713631,12.4238852 C139.713631,13.1022951 139.623285,13.6119344 139.443069,13.9509016 C139.262853,14.2908197 138.930476,14.5917541 138.445937,14.8551311 C138.916686,15.1042459 139.245735,15.4127869 139.433084,15.7793279 C139.619957,16.1472951 139.713631,16.6559836 139.713631,17.3068197 L139.713631,20.6522787 C139.713631,21.4138852 139.845346,21.9168689 140.108775,22.158377 C140.371729,22.4008361 140.904769,22.522541 141.708847,22.522541 L141.708847,23.8318197 L141.105908,23.8318197 C140.053141,23.8318197 139.304697,23.5998197 138.861527,23.1353443 C138.417882,22.6718197 138.195821,21.8850164 138.195821,20.7768361 L138.195821,17.3481803 C138.195821,16.7529672 138.106427,16.3094098 137.92621,16.018459 C137.745994,15.7279836 137.44072,15.5268852 137.011816,15.4161148 L137.011816,14.1900328 C137.801628,13.9684918 138.195821,13.3523607 138.195821,12.3406885 L138.195821,8.68383607 C138.195821,7.67263934 138.428343,6.9452623 138.892435,6.50170492 C139.357003,6.05862295 140.101167,5.83660656 141.12683,5.83660656 L141.708847,5.83660656 L141.708847,7.14588525 C140.904769,7.16014754 140.371729,7.28470492 140.108775,7.52003279 C139.845346,7.75536066 139.713631,8.23362295 139.713631,8.95386885 L139.713631,12.4238852" id="Fill-13" fill="#4D4D4C" sketch:type="MSShapeGroup"></path>
                <path d="M147.024035,17.244541 C147.024035,16.579918 147.113905,16.074082 147.294121,15.7279836 C147.473862,15.3818852 147.806239,15.0771475 148.291729,14.8132951 C147.820504,14.5641803 147.491455,14.2556393 147.304107,13.8890984 C147.117233,13.5216066 147.024035,13.012918 147.024035,12.3616066 L147.024035,9.01614754 C147.024035,8.25454098 146.891369,7.75203279 146.629366,7.50957377 C146.365937,7.26759016 145.831945,7.14588525 145.028818,7.14588525 L145.028818,5.83660656 L145.610836,5.83660656 C146.663127,5.83660656 147.415375,6.06908197 147.865677,6.53308197 C148.315504,6.99755738 148.540893,7.78340984 148.540893,8.89159016 L148.540893,12.3202459 C148.540893,13.4141639 148.935562,14.0583443 149.724899,14.2527869 L149.724899,15.4783934 C148.935562,15.6999344 148.540893,16.316541 148.540893,17.3277377 L148.540893,20.9850656 C148.540893,21.9962623 148.312651,22.7231639 147.855216,23.1667213 C147.397781,23.6098033 146.649813,23.8318197 145.610836,23.8318197 L145.028818,23.8318197 L145.028818,22.522541 C145.831945,22.5087541 146.365937,22.3837213 146.629366,22.1483934 C146.891369,21.9130656 147.024035,21.4348033 147.024035,20.7145574 L147.024035,17.244541" id="Fill-14" fill="#4D4D4C" sketch:type="MSShapeGroup"></path>
                <path d="M155.628285,20.6318361 C155.628285,20.3955574 155.51036,20.2781311 155.274986,20.2781311 L154.859395,20.2781311 C154.540331,20.2781311 154.273573,20.1602295 154.059121,19.925377 C153.844193,19.6895738 153.736729,19.3990984 153.736729,19.0525246 C153.736729,18.6503279 153.875101,18.3142131 154.15232,18.0446557 C154.429539,17.774623 154.776182,17.6396066 155.191772,17.6396066 C155.690576,17.6396066 156.091902,17.8335738 156.397176,18.2210328 C156.701974,18.6094426 156.854611,19.1148033 156.854611,19.7380656 C156.854611,20.7901475 156.445677,21.8778852 155.628285,23.0003279 C155.267378,23.4847705 154.963055,23.7277049 154.71389,23.7277049 C154.436671,23.7277049 154.2983,23.5888852 154.2983,23.3121967 C154.2983,23.2152131 154.352983,23.0901803 154.464251,22.9380492 C155.239798,21.9130656 155.628285,21.1443279 155.628285,20.6318361 M155.150403,13.255377 C154.789496,13.255377 154.484697,13.1270164 154.235533,12.8702951 C153.986369,12.6145246 153.861787,12.306459 153.861787,11.9460984 C153.861787,11.5857377 153.986369,11.2776721 154.235533,11.0219016 C154.484697,10.7651803 154.789496,10.6368197 155.150403,10.6368197 C155.51036,10.6368197 155.818487,10.7651803 156.074784,11.0219016 C156.331081,11.2776721 156.459467,11.5857377 156.459467,11.9460984 C156.459467,12.306459 156.331081,12.6145246 156.074784,12.8702951 C155.818487,13.1270164 155.51036,13.255377 155.150403,13.255377" id="Fill-15" fill="#1A1918" sketch:type="MSShapeGroup"></path>
                <path d="M26.7994236,13.4260492 C26.7994236,13.9509016 26.7651873,14.2713279 26.6952882,14.3887541 C26.6258646,14.5061803 26.4242507,14.5646557 26.0913977,14.5646557 L19.4647695,14.5646557 C19.2836023,14.5646557 19.1652017,14.5884262 19.1095677,14.6378689 C19.0544092,14.6863607 19.02683,14.7662295 19.02683,14.8779508 C19.02683,15.9224262 19.3392363,16.7929016 19.9645245,17.4889016 C20.5898127,18.1849016 21.3677378,18.5329016 22.2992507,18.5329016 C22.9097983,18.5329016 23.4689914,18.367459 23.975879,18.0351475 C24.4832421,17.7018852 24.8137176,17.2801967 24.9663545,16.7672295 L25.1537032,16.1644098 C25.2511816,15.8320984 25.4798991,15.6657049 25.8412824,15.6657049 C26.3553026,15.6657049 26.6125504,15.9295574 26.6125504,16.4553607 C26.6125504,17.3562623 26.1551153,18.1559016 25.2407205,18.8552295 C24.3263256,19.5550328 23.2873487,19.904459 22.1233141,19.904459 C20.6687464,19.904459 19.5118444,19.4171639 18.6526081,18.4397213 C17.7933718,17.4627541 17.3639914,16.1510984 17.3639914,14.502377 C17.3639914,12.8122951 17.8214265,11.4407377 18.7358213,10.3881803 C19.6502161,9.33514754 20.84183,8.80839344 22.3101873,8.80839344 C23.6130692,8.80839344 24.6867579,9.24339344 25.5317291,10.1133934 C26.3771758,10.982918 26.7994236,12.0868197 26.7994236,13.4260492 M19.2555476,12.9021475 C19.2555476,13.0970656 19.4086599,13.1930984 19.7139337,13.1930984 L24.6986455,13.1930984 C24.9910807,13.1930984 25.1370605,13.0970656 25.1370605,12.9021475 C25.1370605,12.1681148 24.8588905,11.5310656 24.3025504,10.9905246 C23.7466859,10.450459 23.0928674,10.1799508 22.3425216,10.1799508 C21.5636455,10.1799508 20.8541931,10.460918 20.2146398,11.0219016 C19.574611,11.5824098 19.2555476,12.2094754 19.2555476,12.9021475" id="Fill-16" fill="#D8117D" sketch:type="MSShapeGroup"></path>
            </g>
        </g>
    </g>
</svg>