<?xml version="1.0" encoding="UTF-8" standalone="no"?>
<svg width="155px" height="85px" viewBox="0 0 155 85" version="1.1" xmlns="http://www.w3.org/2000/svg" xmlns:xlink="http://www.w3.org/1999/xlink" xmlns:sketch="http://www.bohemiancoding.com/sketch/ns">
    <!-- Generator: Sketch 3.1.1 (8761) - http://www.bohemiancoding.com/sketch -->
    <title>Imported Layers</title>
    <desc>Created with Sketch.</desc>
    <defs></defs>
    <g id="Page-1" stroke="none" stroke-width="1" fill="none" fill-rule="evenodd" sketch:type="MSPage">
        <g id="Desktop" sketch:type="MSArtboardGroup" transform="translate(-434.000000, -98.000000)">
            <g id="Imported-Layers" sketch:type="MSLayerGroup" transform="translate(435.000000, 98.000000)">
                <path d="M76.488,0.42 C118.777,0.42 153.064,16.607 153.064,36.574 C153.064,56.538 118.777,72.721 76.488,72.721 C65.202,72.721 46.48,69.296 33.722,66.168 C19.565,62.708 -0.413,89.916 3.587,83.169 C11.428,69.926 16.727,64.901 8.257,53.178 C2.038,44.572 -0.086,40.676 -0.086,36.574 C-0.086,16.607 34.197,0.42 76.488,0.42" id="Fill-1" fill="#2A4B55" sketch:type="MSShapeGroup"></path>
                <path d="M26.065,31.915 C26.494,31.602 27.117,31.446 27.941,31.446 C28.753,31.446 29.411,31.65 29.914,32.058 C30.282,32.361 30.502,32.839 30.569,33.487 L37.592,32.764 C37.336,31.439 36.907,30.39 36.316,29.615 C35.724,28.838 34.918,28.265 33.9,27.898 C32.879,27.528 31.242,27.344 28.976,27.344 C26.832,27.344 25.082,27.583 23.726,28.06 C22.374,28.537 21.253,29.26 20.367,30.226 C19.478,31.193 18.927,32.344 18.704,33.681 C18.505,34.901 18.661,35.989 19.177,36.942 C19.692,37.896 20.408,38.573 21.324,38.975 C22.241,39.377 23.924,39.811 26.375,40.28 C28.014,40.599 29.011,40.867 29.37,41.082 C29.869,41.39 30.07,41.821 29.978,42.381 C29.897,42.877 29.619,43.29 29.15,43.621 C28.538,44.067 27.744,44.288 26.766,44.288 C25.873,44.288 25.188,44.092 24.721,43.698 C24.248,43.303 23.941,42.648 23.793,41.731 L16.451,42.457 C16.546,44.402 17.24,45.903 18.541,46.959 C19.836,48.015 22.219,48.546 25.691,48.546 C28.145,48.546 30.138,48.217 31.67,47.56 C33.203,46.906 34.393,46.025 35.237,44.919 C36.078,43.811 36.6,42.672 36.792,41.5 C36.985,40.346 36.847,39.283 36.379,38.314 C35.915,37.351 35.135,36.606 34.041,36.083 C32.946,35.563 31.216,35.154 28.845,34.862 C27.277,34.657 26.279,34.431 25.844,34.175 C25.413,33.921 25.236,33.544 25.316,33.05 C25.39,32.604 25.64,32.227 26.065,31.915 M68.38,27.344 C66.997,27.344 65.798,27.583 64.777,28.06 C63.756,28.537 62.564,29.436 61.2,30.761 C60.83,29.628 60.246,28.773 59.459,28.202 C58.672,27.631 57.521,27.344 56.008,27.344 C54.603,27.344 53.358,27.606 52.277,28.127 C51.196,28.649 50.066,29.526 48.883,30.761 L49.372,27.802 L42.577,27.802 L39.23,48.065 L46.525,48.065 L48.233,37.724 C48.49,36.186 48.938,35.08 49.586,34.406 C50.233,33.729 50.975,33.392 51.811,33.392 C52.322,33.392 52.741,33.549 53.073,33.861 C53.404,34.172 53.605,34.585 53.675,35.09 C53.716,35.41 53.665,36.015 53.519,36.904 L51.676,48.065 L58.967,48.065 L60.695,37.611 C60.938,36.148 61.376,35.085 62.01,34.425 C62.643,33.762 63.39,33.431 64.246,33.431 C64.972,33.431 65.522,33.782 65.897,34.482 C66.155,34.927 66.209,35.604 66.06,36.523 L64.153,48.065 L71.448,48.065 L73.549,35.339 C74.004,32.591 73.763,30.572 72.837,29.281 C71.902,27.991 70.417,27.344 68.38,27.344 M93.022,36.083 C91.928,35.563 90.194,35.154 87.823,34.862 C86.262,34.657 85.264,34.431 84.825,34.175 C84.395,33.921 84.215,33.544 84.297,33.05 C84.371,32.604 84.625,32.227 85.05,31.915 C85.475,31.602 86.102,31.446 86.925,31.446 C87.734,31.446 88.393,31.65 88.896,32.058 C89.263,32.361 89.484,32.839 89.554,33.487 L96.574,32.764 C96.318,31.439 95.893,30.39 95.297,29.615 C94.705,28.838 93.899,28.265 92.881,27.898 C91.864,27.528 90.223,27.344 87.958,27.344 C85.812,27.344 84.065,27.583 82.711,28.06 C81.355,28.537 80.234,29.26 79.348,30.226 C78.461,31.193 77.905,32.344 77.689,33.681 C77.486,34.901 77.64,35.989 78.158,36.942 C78.673,37.896 79.39,38.573 80.308,38.975 C81.223,39.377 82.906,39.811 85.357,40.28 C86.995,40.599 87.996,40.867 88.351,41.082 C88.851,41.39 89.052,41.821 88.959,42.381 C88.879,42.877 88.604,43.29 88.13,43.621 C87.52,44.067 86.726,44.288 85.75,44.288 C84.854,44.288 84.173,44.092 83.699,43.698 C83.233,43.303 82.919,42.648 82.775,41.731 L75.433,42.457 C75.528,44.402 76.226,45.903 77.522,46.959 C78.821,48.015 81.204,48.546 84.672,48.546 C87.126,48.546 89.119,48.217 90.651,47.56 C92.184,46.906 93.375,46.025 94.219,44.919 C95.061,43.811 95.582,42.672 95.774,41.5 C95.965,40.346 95.828,39.283 95.361,38.314 C94.898,37.351 94.116,36.606 93.022,36.083" id="Fill-2" fill="#FFFFFF" sketch:type="MSShapeGroup"></path>
                <path d="M109.627,44.14 C106.316,44.14 104.984,41.65 104.984,38.644 C104.984,34.605 107.305,29.066 112.078,29.066 C114.257,29.066 115.711,29.999 116.448,31.555 L117.306,27.527 C115.948,25.879 113.949,25.2 111.559,25.2 C104.127,25.2 100.087,32.2 100.087,38.9 C100.087,44.484 103.222,48.005 108.725,48.005 C111.345,48.005 113.495,46.803 114.999,44.655 L115.085,44.742 L114.612,46.933 C113.837,50.539 112.721,53.159 108.338,53.159 C105.544,53.159 103.395,52.257 103.267,49.724 L98.365,49.724 C98.451,54.921 102.965,56.811 107.909,56.811 C114.912,56.811 117.663,54.191 119.126,47.406 L121.474,36.574 L116.832,36.574 C116.22,40.427 114.007,44.14 109.627,44.14 M130.743,24.199 C127.949,24.199 125.112,25.702 123.436,27.936 L123.352,27.936 L125.758,16.339 L120.857,16.339 L116.985,34.994 L121.89,34.98 C122.274,33.173 123.18,31.372 124.295,30.211 C125.499,29.007 127.002,28.064 128.938,28.064 C132.505,28.064 132.333,30.512 132.333,31.241 C132.333,31.842 132.163,32.575 131.99,33.304 L129.152,47.004 L134.051,47.004 L137.019,32.831 C137.189,32.059 137.231,30.898 137.231,30.082 C137.231,26.519 135.212,24.199 130.743,24.199" id="Fill-3" fill="#E4752B" sketch:type="MSShapeGroup"></path>
            </g>
        </g>
    </g>
</svg>